<svg width="28" height="28" fill="none" xmlns="http://www.w3.org/2000/svg"><path d="M26.36 9.898h-4.922v1.641h-1.641v4.922h1.64v1.64h4.922v-1.64H28v-4.922h-1.64V9.9zm0 4.922h-1.641v1.64h-1.64v-1.64h-1.642v-1.64h1.641v-1.64h1.64v1.64h1.641v1.64zM9.078 4.977C4.073 4.977 0 9.025 0 14c0 4.976 4.073 9.023 9.078 9.023 5.006 0 9.078-4.047 9.078-9.023a9.07 9.07 0 00-.18-1.804l-.134-.657h-5.088l3.34-3.34c-.268-.187-2.56-3.222-7.016-3.222zm3.49 4.427a5.89 5.89 0 00-3.49-1.146c-3.175 0-5.797 2.577-5.797 5.742 0 3.162 2.619 5.742 5.797 5.742 2.476 0 4.67-1.576 5.469-3.827l.388-1.095H9.898v-1.64h6.573c.03.271.045.546.045.82 0 4.07-3.337 7.383-7.438 7.383-4.1 0-7.437-3.312-7.437-7.383 0-4.07 3.336-7.383 7.437-7.383a7.54 7.54 0 014.662 1.616l-1.172 1.171zm-.167 7.057a4.243 4.243 0 01-3.323 1.64c-2.292 0-4.156-1.84-4.156-4.101 0-2.262 1.864-4.102 4.156-4.102 2.144 0 3.179 1.488 3.391 1.641H8.258v4.922H12.4z" fill="#8F8F8F"/></svg>