<svg width="28" height="28" fill="none" xmlns="http://www.w3.org/2000/svg"><path d="M4.102 28h19.796A4.106 4.106 0 0028 23.898V4.102A4.106 4.106 0 0023.898 0H4.102A4.106 4.106 0 000 4.102v19.796A4.106 4.106 0 004.102 28zM1.64 4.102A2.464 2.464 0 014.1 1.64h19.797A2.464 2.464 0 0126.36 4.1v19.797a2.464 2.464 0 01-2.46 2.461H4.101A2.464 2.464 0 011.64 23.9V4.101z" fill="#8F8F8F"/><path d="M14 21.383c4.07 0 7.383-3.312 7.383-7.383 0-4.07-3.312-7.383-7.383-7.383-4.07 0-7.383 3.312-7.383 7.383 0 4.07 3.312 7.383 7.383 7.383zm0-13.125A5.749 5.749 0 0119.742 14 5.749 5.749 0 0114 19.742 5.749 5.749 0 018.258 14 5.749 5.749 0 0114 8.258zm8.203 0a2.464 2.464 0 002.461-2.461 2.464 2.464 0 00-2.46-2.461 2.464 2.464 0 00-2.462 2.46 2.464 2.464 0 002.461 2.462zm0-3.281a.821.821 0 010 1.64.821.821 0 010-1.64z" fill="#8F8F8F"/></svg>