<svg width="29" height="28" fill="none" xmlns="http://www.w3.org/2000/svg"><g clip-path="url(#clip0)"><path d="M5.665 16.314l.984.622.372-1.348c.658-2.37.588-2.264.654-2.527-.027-.148-.72-1.928-.237-4.09l.01-.05c.659-4.205 7.947-5.35 11.33-2.613 1.46 1.18 2.01 2.951 1.589 5.122-.303 1.559-.83 2.72-1.66 3.658-1.147 1.293-2.588 1.398-3.443.948-.317-.167-1.022-.67-.695-1.725.467-1.51 1.31-3.785 1.41-5.434.09-1.47-.829-2.665-2.283-2.976-1.622-.346-3.49.499-4.299 2.47-.581 1.418-.58 2.891.005 4.503.019.397-.4 1.897-.738 3.106-1.022 3.657-2.422 8.665-1.059 11.215l.431.805.787-.494c2.248-1.412 3.562-5.517 4.282-8.075 1.895 1.355 4.58 1.47 7.237.217 4.265-2.01 7.11-6.81 5.684-12.151C24.437 1.542 18.272-.766 12.062.22c-5.119.813-8.375 4.014-9.239 7.96-.729 3.33.413 6.598 2.842 8.134zM4.485 8.52c.772-3.526 3.707-6.023 7.853-6.682 4.978-.79 10.633.78 12.043 6.068 1.305 4.89-1.565 8.75-4.784 10.268-1.975.931-4.658 1.207-6.269-.81l-1.05-1.317-.443 1.606c-.585 2.118-1.531 5.714-3.05 7.636-.3-2.377.81-6.348 1.519-8.881.676-2.42.941-3.425.715-4.038-.457-1.24-.471-2.35-.043-3.396.48-1.17 1.504-1.653 2.353-1.472.306.066 1.013.321.955 1.279-.086 1.417-.906 3.647-1.343 5.06-.459 1.484.134 2.91 1.51 3.635 1.547.814 3.87.569 5.546-1.322 1.032-1.164 1.68-2.57 2.04-4.422.277-1.433.211-2.75-.197-3.916-.379-1.084-1.042-2.015-1.971-2.766-4.383-3.543-13.205-1.916-14.097 3.6-.317 1.442-.265 2.942.154 4.464-.067.286-.163.651-.265 1.027C4.48 12.799 4.01 10.69 4.485 8.52z" fill="#8F8F8F"/></g><defs><clipPath id="clip0"><path fill="#fff" d="M0 0h29v28H0z"/></clipPath></defs></svg>