<svg width="114" height="49" fill="none" xmlns="http://www.w3.org/2000/svg"><path d="M101 40h10l-10 9v-9z" fill="#573636"/><g filter="url(#filter0_d)"><path fill="#AC3737" d="M3 0h108v40H3z"/></g><path d="M40.216 22.848c0 1.661-.588 2.968-1.764 3.92-1.176.952-2.697 1.428-4.564 1.428-2.072 0-3.79-.401-5.152-1.204v-2.996c1.475 1.101 3.183 1.652 5.124 1.652 1.027 0 1.839-.233 2.436-.7.597-.485.896-1.148.896-1.988 0-.504-.177-.961-.532-1.372-.355-.43-.737-.747-1.148-.952a30.607 30.607 0 00-1.848-.896c-.485-.224-.83-.383-1.036-.476a37.819 37.819 0 01-.952-.504 8.59 8.59 0 01-1.008-.616 15.845 15.845 0 01-.784-.7c-.317-.299-.55-.597-.7-.896a12.35 12.35 0 01-.392-1.036 4.983 4.983 0 01-.168-1.316c0-1.605.579-2.875 1.736-3.808 1.176-.933 2.688-1.4 4.536-1.4 1.699 0 3.145.299 4.34.896v2.856c-1.25-.784-2.67-1.176-4.256-1.176-1.027 0-1.839.233-2.436.7-.579.448-.868 1.045-.868 1.792 0 .747.29 1.344.868 1.792.579.448 1.465.933 2.66 1.456.784.336 1.39.625 1.82.868.448.243.952.588 1.512 1.036.579.43.999.952 1.26 1.568.28.597.42 1.288.42 2.072zm7.91-2.828l-.308.952h6.048l-.308-.952a629.248 629.248 0 01-1.736-5.46 99.59 99.59 0 01-.812-2.716l-.14-.532c-.206.877-1.12 3.78-2.744 8.708zM45.522 28H42.47l6.524-18.872h3.78L59.214 28h-3.08l-1.484-4.62h-7.616L45.522 28zm27.22 0H62.13V9.128h2.884v16.324h7.728V28zm13.733 0H75.583V9.128h10.752v2.408h-7.868v5.824h6.972v2.408h-6.972v5.824h8.008V28z" fill="#fff"/><defs><filter id="filter0_d" x="0" y="0" width="114" height="46" filterUnits="userSpaceOnUse" color-interpolation-filters="sRGB"><feFlood flood-opacity="0" result="BackgroundImageFix"/><feColorMatrix in="SourceAlpha" values="0 0 0 0 0 0 0 0 0 0 0 0 0 0 0 0 0 0 127 0"/><feOffset dy="3"/><feGaussianBlur stdDeviation="1.5"/><feColorMatrix values="0 0 0 0 0 0 0 0 0 0 0 0 0 0 0 0 0 0 0.27 0"/><feBlend in2="BackgroundImageFix" result="effect1_dropShadow"/><feBlend in="SourceGraphic" in2="effect1_dropShadow" result="shape"/></filter></defs></svg>