<svg width="28" height="28" fill="none" xmlns="http://www.w3.org/2000/svg"><g clip-path="url(#clip0)"><path d="M28 5.63c-1.761.082-1.723.075-1.922.092l1.043-2.979s-3.256 1.198-4.081 1.412c-2.168-1.948-5.39-2.034-7.694-.618-1.887 1.16-2.9 3.15-2.562 5.479-3.671-.51-6.765-2.25-9.207-5.184l-.772-.928-.578 1.06c-.73 1.34-.971 2.871-.682 4.312.119.592.32 1.156.6 1.684l-.662-.257-.079 1.107c-.08 1.125.295 2.438 1.002 3.512.2.302.455.635.78.962l-.342-.052.418 1.268c.549 1.667 1.69 2.957 3.17 3.674-1.478.627-2.673 1.028-4.636 1.673L0 22.437l1.659.908c.633.346 2.868 1.5 5.076 1.847 4.91.77 10.436.143 14.157-3.208 3.134-2.823 4.163-6.838 3.949-11.016-.032-.632.14-1.236.488-1.7.695-.927 2.667-3.63 2.671-3.637zm-3.983 2.656c-.576.77-.865 1.752-.813 2.766.215 4.215-.931 7.483-3.409 9.714-2.894 2.607-7.562 3.63-12.806 2.807-.95-.149-1.931-.483-2.744-.816 1.646-.566 2.917-1.07 4.97-2.042l2.866-1.357-3.164-.202c-1.516-.097-2.777-.831-3.553-2.024.412-.024.809-.09 1.204-.2l3.018-.841-3.043-.745c-1.478-.362-2.321-1.247-2.768-1.925a4.64 4.64 0 01-.6-1.324c.305.082.661.14 1.235.197l2.816.278-2.231-1.74c-1.608-1.254-2.253-3.138-1.78-4.95 5.017 5.205 10.909 4.814 11.502 4.952-.13-1.268-.134-1.271-.168-1.392-.76-2.684.905-4.048 1.655-4.509 1.568-.964 4.057-1.109 5.781.479a1.47 1.47 0 001.347.36c.423-.105.77-.216 1.11-.337l-.707 2.02h.903c-.17.23-.375.503-.621.831z" fill="#8F8F8F"/></g><defs><clipPath id="clip0"><path fill="#fff" d="M0 0h28v28H0z"/></clipPath></defs></svg>