<svg width="29" height="28" fill="none" xmlns="http://www.w3.org/2000/svg"><g clip-path="url(#clip0)"><path d="M25.813 16.773l-.015-.014c-.248-.221-1.006-.936-1.262-1.248-.3-.389-.231-.644-.006-1.026.284-.483.854-1.224 1.457-2.01 1.93-2.512 3.178-4.25 2.921-5.486l-.138-.66-7.132.003c-.025.065-.397 1.646-1.968 4.34-1.138 1.952-1.885 2.566-2.148 2.674l-.041-.012c-.086-.102-.235-.378-.297-1.09-.064-.746-.007-1.648.048-2.521.064-1.024.12-1.908-.013-2.54l-.217-1.03c-.261-.041-1.22-.399-3.89-.426-2.31-.023-2.99.3-3.323.585l-1.103.941 1.394.454c.53.173.707.372.851 1.36.094.644.144 1.726.042 2.692-.146 1.385-.497 1.643-.515 1.656-.06-.02-.573-.236-1.462-2.055-.617-1.261-1.158-2.754-1.553-3.843-.452-1.248-.37-.982-.6-1.572h-6.9L.39 7.063c1.861 4.662 3.57 8.303 5.855 10.918 2.525 2.89 5.663 4.402 9.89 4.402h.85v-.822c0-.768.066-1.321.207-1.74.086-.256.2-.468.32-.69.178-.325.353-.465.448-.486.086-.019.238.042.406.164.483.348.866.805 1.272 1.29.585.7 1.19 1.422 2.151 1.895.525.259 1.487.39 2.016.39h5.138l-.036-.856c-.055-1.28-1.096-2.88-3.094-4.755zm-1.975 3.966h-.013c-.365.006-1.062-.11-1.265-.21-.638-.314-1.084-.847-1.602-1.464-.453-.543-.923-1.103-1.576-1.574-.528-.381-1.008-.493-1.39-.493a1.9 1.9 0 00-.405.043c-.443.097-1.075.405-1.578 1.325-.142.262-.303.558-.433.946a5.646 5.646 0 00-.262 1.405c-3.186-.175-5.672-1.394-7.772-3.797-1.952-2.234-3.488-5.36-5.115-9.332h3.241l.172.473c.426 1.175 1.01 2.784 1.697 4.157.984 1.965 1.883 2.842 2.914 2.842a1.76 1.76 0 001.336-.61c.51-.57.808-1.51.907-2.875a13.764 13.764 0 00-.08-2.738c-.072-.486-.173-.996-.421-1.453a21.34 21.34 0 013.366.15c.081.43.028 1.273-.023 2.089-.124 1.97-.252 4.004.826 4.955.19.167.39.257.396.26l.55.164c.21-.064 1.437.538 3.76-3.382.744-1.257 1.436-2.704 1.81-3.65.864-.001 3.812.002 4.158.002-.49 1.045-1.653 2.534-2.413 3.523-.662.862-1.234 1.606-1.57 2.176-.623 1.06-.518 2.003.131 2.836l.01.013c.363.446 1.258 1.273 1.443 1.44 1.345 1.262 1.993 2.17 2.301 2.78h-3.1z" fill="#8F8F8F"/></g><defs><clipPath id="clip0"><path fill="#fff" d="M0 0h29v28H0z"/></clipPath></defs></svg>