<svg width="28" height="28" fill="none" xmlns="http://www.w3.org/2000/svg"><path d="M4.102 24.664h19.796A4.106 4.106 0 0028 20.562V7.438a4.106 4.106 0 00-4.102-4.101H4.102A4.106 4.106 0 000 7.437v13.125a4.106 4.106 0 004.102 4.102zM1.64 7.437a2.464 2.464 0 012.46-2.46h19.797a2.464 2.464 0 012.461 2.46v13.125a2.464 2.464 0 01-2.46 2.461H4.101a2.464 2.464 0 01-2.461-2.46V7.438z" fill="#8F8F8F"/><path d="M9.898 8.504v11.151l9.872-5.667-9.872-5.484zm1.641 2.789l4.895 2.719-4.895 2.81v-5.53z" fill="#8F8F8F"/></svg>