<svg width="28" height="28" viewBox="0 0 28 28" fill="none" xmlns="http://www.w3.org/2000/svg">
<path d="M26.3594 9.89844H21.4375V11.5391H19.7969V16.4609H21.4375V18.1016H26.3594V16.4609H28V11.5391H26.3594V9.89844ZM26.3594 14.8203H24.7188V16.4609H23.0781V14.8203H21.4375V13.1797H23.0781V11.5391H24.7188V13.1797H26.3594V14.8203Z" fill="#8F8F8F"/>
<path d="M9.07812 4.97656C4.07251 4.97656 0 9.02451 0 14C0 18.9755 4.07251 23.0234 9.07812 23.0234C14.0837 23.0234 18.1562 18.9755 18.1562 14C18.1562 13.3931 18.0956 12.7862 17.9757 12.1962L17.8424 11.5391H12.7539L16.0933 8.19949C15.826 8.01236 13.5334 4.97656 9.07812 4.97656ZM12.5683 9.40433C11.5756 8.66882 10.3419 8.25781 9.07812 8.25781C5.90347 8.25781 3.28125 10.8345 3.28125 14C3.28125 17.1616 5.90005 19.7422 9.07812 19.7422C11.5536 19.7422 13.7484 18.1665 14.5467 15.9147L14.9348 14.8203H9.89844V13.1797H16.4706C16.5005 13.4514 16.5156 13.7257 16.5156 14C16.5156 18.0708 13.179 21.3828 9.07812 21.3828C4.9772 21.3828 1.64062 18.0708 1.64062 14C1.64062 9.9292 4.9772 6.61719 9.07812 6.61719C10.7769 6.61719 12.435 7.19846 13.7396 8.23303L12.5683 9.40433ZM12.4008 16.4609C11.6254 17.4639 10.3874 18.1016 9.07812 18.1016C6.78638 18.1016 4.92188 16.2616 4.92188 14C4.92188 11.7384 6.78638 9.89844 9.07812 9.89844C11.2216 9.89844 12.257 11.3863 12.4692 11.5391H8.25781V16.4609H12.4008Z" fill="#8F8F8F"/>
</svg>
