<svg width="29" height="28" viewBox="0 0 29 28" fill="none" xmlns="http://www.w3.org/2000/svg">
<g clip-path="url(#clip0)">
<path d="M5.66544 16.314L6.64868 16.9356L7.02061 15.5879C7.67883 13.2188 7.60914 13.3235 7.67507 13.0605C7.6483 12.9129 6.95534 11.133 7.43789 8.9705L7.4474 8.92072C8.10696 4.71619 15.3946 3.57181 18.7786 6.30768C20.2384 7.48795 20.7878 9.2591 20.3668 11.4297C20.0645 12.9885 19.5369 14.1509 18.7065 15.0876C17.5602 16.3809 16.1185 16.486 15.2645 16.0363C14.9465 15.869 14.2421 15.3657 14.5686 14.3106C15.0357 12.8005 15.8796 10.5261 15.9793 8.87671C16.0683 7.40742 15.1505 6.21155 13.6956 5.90095C12.0738 5.55466 10.2051 6.39976 9.39708 8.37086C8.81563 9.78867 8.81718 11.2622 9.40195 12.8738C9.42097 13.2714 9.00192 14.7706 8.66385 15.9801C7.64188 19.6369 6.24202 24.6447 7.60538 27.1947L8.03616 28L8.82293 27.5059C11.0715 26.0945 12.3851 21.9889 13.105 19.4312C15.0003 20.7862 17.6859 20.9005 20.3422 19.648C24.6066 17.6372 27.4513 12.8388 26.026 7.4965C24.4374 1.54218 18.272 -0.765801 12.0621 0.220283C6.94295 1.0329 3.68722 4.23447 2.82301 8.18052C2.09398 11.5098 3.2363 14.7785 5.66544 16.314ZM4.48483 8.51975C5.25678 4.99433 8.19236 2.49665 12.3375 1.83848C17.3157 1.04807 22.9705 2.61756 24.3812 7.90558C25.6859 12.7958 22.8158 16.6567 19.5968 18.1744C17.6221 19.1054 14.9386 19.3814 13.3285 17.3637L12.278 16.0474L11.8351 17.653C11.2501 19.7713 10.304 23.3674 8.78421 25.2894C8.48574 22.912 9.59532 18.9413 10.3036 16.4076C10.9797 13.9887 11.245 12.9828 11.0189 12.3701C10.5615 11.1309 10.5476 10.0202 10.9762 8.97434C11.4563 7.80347 12.4802 7.3209 13.3287 7.50205C13.6352 7.56763 14.3416 7.82313 14.2837 8.78101C14.1978 10.198 13.3783 12.428 12.9411 13.8413C12.482 15.3249 13.0747 16.7517 14.4514 17.4763C15.9984 18.2904 18.3209 18.0446 19.9968 16.154C21.0288 14.9898 21.6768 13.5845 22.0361 11.7316C22.314 10.299 22.2481 8.98182 21.8403 7.81608C21.4611 6.73173 20.7978 5.80118 19.869 5.05009C15.4859 1.50672 6.66395 3.1341 5.77208 8.64963C5.45458 10.0916 5.50658 11.5925 5.92629 13.1144C5.85881 13.3998 5.76301 13.7653 5.66145 14.141C4.4793 12.7988 4.0098 10.6897 4.48483 8.51975Z" fill="#8F8F8F"/>
</g>
<defs>
<clipPath id="clip0">
<rect width="29" height="28" fill="white"/>
</clipPath>
</defs>
</svg>
