<svg width="114" height="49" viewBox="0 0 114 49" fill="none" xmlns="http://www.w3.org/2000/svg">
<path d="M101 40H111L101 49V40Z" fill="#573636"/>
<g filter="url(#filter0_d)">
<rect x="3" width="108" height="40" fill="#AC3737"/>
</g>
<path d="M40.216 22.848C40.216 24.5093 39.628 25.816 38.452 26.768C37.276 27.72 35.7547 28.196 33.888 28.196C31.816 28.196 30.0987 27.7947 28.736 26.992V23.996C30.2107 25.0973 31.9187 25.648 33.86 25.648C34.8867 25.648 35.6987 25.4147 36.296 24.948C36.8933 24.4627 37.192 23.8 37.192 22.96C37.192 22.456 37.0147 21.9987 36.66 21.588C36.3053 21.1587 35.9227 20.8413 35.512 20.636C35.1013 20.412 34.4853 20.1133 33.664 19.74C33.1787 19.516 32.8333 19.3573 32.628 19.264C32.4413 19.1707 32.124 19.0027 31.676 18.76C31.228 18.5173 30.892 18.312 30.668 18.144C30.4627 17.976 30.2013 17.7427 29.884 17.444C29.5667 17.1453 29.3333 16.8467 29.184 16.548C29.0533 16.2493 28.9227 15.904 28.792 15.512C28.68 15.1013 28.624 14.6627 28.624 14.196C28.624 12.5907 29.2027 11.3213 30.36 10.388C31.536 9.45467 33.048 8.988 34.896 8.988C36.5947 8.988 38.0413 9.28667 39.236 9.884V12.74C37.9853 11.956 36.5667 11.564 34.98 11.564C33.9533 11.564 33.1413 11.7973 32.544 12.264C31.9653 12.712 31.676 13.3093 31.676 14.056C31.676 14.8027 31.9653 15.4 32.544 15.848C33.1227 16.296 34.0093 16.7813 35.204 17.304C35.988 17.64 36.5947 17.9293 37.024 18.172C37.472 18.4147 37.976 18.76 38.536 19.208C39.1147 19.6373 39.5347 20.16 39.796 20.776C40.076 21.3733 40.216 22.064 40.216 22.848ZM48.1256 20.02L47.8176 20.972H53.8656L53.5576 20.02C52.8482 17.8173 52.2696 15.9973 51.8216 14.56C51.3736 13.104 51.1029 12.1987 51.0096 11.844L50.8696 11.312C50.6642 12.1893 49.7496 15.092 48.1256 20.02ZM45.5216 28H42.4696L48.9936 9.128H52.7736L59.2136 28H56.1336L54.6496 23.38H47.0336L45.5216 28ZM72.7419 28H62.1299V9.128H65.0139V25.452H72.7419V28ZM86.4751 28H75.5831V9.128H86.3351V11.536H78.4671V17.36H85.4391V19.768H78.4671V25.592H86.4751V28Z" fill="white"/>
<defs>
<filter id="filter0_d" x="0" y="0" width="114" height="46" filterUnits="userSpaceOnUse" color-interpolation-filters="sRGB">
<feFlood flood-opacity="0" result="BackgroundImageFix"/>
<feColorMatrix in="SourceAlpha" type="matrix" values="0 0 0 0 0 0 0 0 0 0 0 0 0 0 0 0 0 0 127 0"/>
<feOffset dy="3"/>
<feGaussianBlur stdDeviation="1.5"/>
<feColorMatrix type="matrix" values="0 0 0 0 0 0 0 0 0 0 0 0 0 0 0 0 0 0 0.27 0"/>
<feBlend mode="normal" in2="BackgroundImageFix" result="effect1_dropShadow"/>
<feBlend mode="normal" in="SourceGraphic" in2="effect1_dropShadow" result="shape"/>
</filter>
</defs>
</svg>
