<svg width="28" height="28" viewBox="0 0 28 28" fill="none" xmlns="http://www.w3.org/2000/svg">
<g clip-path="url(#clip0)">
<path d="M28 5.63087C26.2387 5.71205 26.2771 5.70542 26.078 5.72209L27.1212 2.74311C27.1212 2.74311 23.8651 3.9409 23.0397 4.15516C20.8718 2.20671 17.6495 2.12062 15.3458 3.53651C13.4593 4.69627 12.4467 6.68788 12.7845 9.01573C9.11294 8.50624 6.01947 6.76585 3.57712 3.83195L2.80466 2.90419L2.22745 3.96418C1.49792 5.3036 1.25568 6.83506 1.54514 8.27638C1.66391 8.86769 1.86578 9.43165 2.14542 9.95973L1.48276 9.70295L1.40414 10.8102C1.32446 11.9349 1.69894 13.2478 2.40604 14.3219C2.60513 14.6244 2.86148 14.9566 3.1864 15.2843L2.84396 15.2317L3.26181 16.5004C3.81103 18.1673 4.95178 19.457 6.43219 20.1739C4.9537 20.8013 3.75934 21.2016 1.79614 21.8474L0 22.4379L1.659 23.3449C2.29153 23.6908 4.52667 24.8458 6.73511 25.1923C11.6442 25.9622 17.1712 25.3352 20.8921 21.9841C24.0262 19.1615 25.0546 15.1465 24.8409 10.9682C24.8087 10.3357 24.9819 9.732 25.3289 9.26866C26.0238 8.34089 27.9957 5.63706 28 5.63087ZM24.017 8.28599C23.4409 9.05525 23.1522 10.0377 23.2039 11.052C23.4195 15.2666 22.2728 18.535 19.7954 20.7661C16.9014 23.3725 12.2335 24.3955 6.9891 23.5729C6.03934 23.424 5.05774 23.0905 4.24533 22.7575C5.8913 22.1911 7.16235 21.6863 9.21506 20.7148L12.0806 19.3585L8.91684 19.156C7.4014 19.059 6.13953 18.3246 5.36386 17.1321C5.77573 17.1082 6.17285 17.0415 6.56827 16.9313L9.58569 16.0909L6.54306 15.3458C5.06457 14.9837 4.22183 14.0991 3.77515 13.4206C3.48184 12.9748 3.29022 12.5181 3.17529 12.097C3.48035 12.1788 3.83603 12.2372 4.40961 12.294L7.2258 12.5725L4.99451 10.8319C3.38678 9.57798 2.74249 7.69404 3.21481 5.88294C8.23239 11.0872 14.1237 10.6961 14.7167 10.8337C14.5862 9.56581 14.5828 9.56282 14.5486 9.44212C13.7892 6.75752 15.4535 5.39439 16.2042 4.93296C17.7722 3.96931 20.2611 3.82405 21.985 5.41169C22.3574 5.75434 22.8609 5.88914 23.3321 5.77207C23.7551 5.66697 24.1022 5.55567 24.4421 5.43455L23.7346 7.455L24.6378 7.45564C24.4673 7.68421 24.2629 7.95787 24.017 8.28599Z" fill="#8F8F8F"/>
</g>
<defs>
<clipPath id="clip0">
<rect width="28" height="28" fill="white"/>
</clipPath>
</defs>
</svg>
