<svg width="29" height="28" viewBox="0 0 29 28" fill="none" xmlns="http://www.w3.org/2000/svg">
<g clip-path="url(#clip0)">
<path d="M25.8134 16.7727L25.7976 16.7586C25.5501 16.5375 24.7916 15.8234 24.5358 15.5113C24.2356 15.122 24.3048 14.8669 24.5299 14.4846C24.8142 14.0015 25.3839 13.2605 25.9868 12.4758C27.9179 9.9634 29.1647 8.22411 28.908 6.98866L28.7697 6.32877L21.6381 6.33177C21.6131 6.39684 21.2409 7.97839 19.6705 10.6715C18.5317 12.6241 17.7847 13.2376 17.5217 13.3459L17.481 13.3339C17.3953 13.2316 17.2458 12.9555 17.1843 12.2438C17.1201 11.4983 17.177 10.5957 17.2321 9.72282C17.2964 8.69928 17.352 7.81529 17.219 7.1828L17.0024 6.1524C16.7407 6.11195 15.7824 5.75429 13.1126 5.7271C10.8011 5.7042 10.1221 6.02719 9.78867 6.31186L8.68572 7.25343L10.0798 7.7072C10.6104 7.87993 10.7865 8.0792 10.931 9.067C11.0253 9.71084 11.0746 10.7928 10.9728 11.7588C10.8266 13.1438 10.4759 13.4015 10.4577 13.4152C10.3973 13.3953 9.88514 13.1785 8.99592 11.3598C8.37907 10.0985 7.83833 8.60638 7.44317 7.51692C6.99093 6.26927 7.07235 6.53489 6.84291 5.94543L-0.0566406 5.94521L0.389848 7.06251C2.25125 11.725 3.9591 15.366 6.24464 17.9812C8.7698 20.8705 11.9081 22.3834 16.1353 22.3834H16.9849V21.5614C16.9849 20.793 17.0506 20.2397 17.1916 19.8202C17.2776 19.5646 17.392 19.3534 17.5122 19.1319C17.6905 18.8057 17.8648 18.6659 17.96 18.6451C18.0463 18.6261 18.198 18.6873 18.3662 18.8087C18.849 19.1569 19.2322 19.6145 19.638 20.0991C20.2234 20.7984 20.8287 21.5212 21.7892 21.9944C22.314 22.253 23.276 22.3836 23.8055 22.3836C23.9455 22.3836 28.9372 22.3834 28.9434 22.3834L28.9069 21.5276C28.8525 20.2481 27.8115 18.6481 25.8134 16.7727ZM23.8384 20.7395H23.8247C23.4597 20.7453 22.7629 20.6295 22.5603 20.5298C21.9217 20.2151 21.4755 19.6819 20.9584 19.0646C20.5046 18.5225 20.0353 17.9619 19.382 17.4908C18.8536 17.1096 18.3737 16.9981 17.9927 16.9981C17.8405 16.9981 17.7038 17.0158 17.5865 17.0415C17.1442 17.1378 16.5117 17.4456 16.0088 18.3658C15.8669 18.6276 15.7061 18.924 15.5758 19.3119C15.4392 19.7177 15.3543 20.1687 15.3138 20.7173C12.1282 20.5422 9.64242 19.323 7.54229 16.92C5.58973 14.6856 4.05357 11.5604 2.4267 7.58841C2.54441 7.58841 5.49393 7.58883 5.66806 7.58883C5.72138 7.73374 5.7789 7.89256 5.83997 8.06079C6.26588 9.23609 6.84933 10.8455 7.53676 12.2179C8.52111 14.1832 9.42006 15.0597 10.4513 15.0597C10.9662 15.0597 11.4279 14.8487 11.7866 14.4491C12.2979 13.8795 12.5948 12.9394 12.6944 11.5749C12.7729 10.4989 12.6999 9.42723 12.6136 8.83669C12.5424 8.35082 12.4408 7.84076 12.193 7.38378C13.2491 7.33776 14.6631 7.41054 15.5589 7.53489C15.6404 7.96383 15.5873 8.80694 15.5359 9.62265C15.4118 11.5931 15.2837 13.6265 16.3619 14.5779C16.5515 14.7453 16.7526 14.835 16.7584 14.8386L17.3071 15.0015C17.5188 14.9384 18.7452 15.5402 21.0675 11.6197C21.8116 10.3634 22.5043 8.91589 22.8773 7.97047C23.7424 7.96876 26.6897 7.97197 27.036 7.97239C26.5455 9.0167 25.383 10.5062 24.6232 11.4949C23.9608 12.3566 23.3889 13.1008 23.0532 13.671C22.4297 14.7303 22.5346 15.6744 23.184 16.5073L23.1942 16.5201C23.5566 16.9664 24.4515 17.7926 24.6372 17.9591C25.9819 19.2222 26.63 20.1295 26.9384 20.7393H23.8384V20.7395Z" fill="#8F8F8F"/>
</g>
<defs>
<clipPath id="clip0">
<rect width="29" height="28" fill="white"/>
</clipPath>
</defs>
</svg>
